<svg width="111" height="62" viewBox="0 0 111 62" fill="none" xmlns="http://www.w3.org/2000/svg">
<g clip-path="url(#clip0_112_24)">
<path d="M36.806 47.2118C36.806 49.6244 36.2413 51.7035 35.112 53.4488C34.034 55.1428 32.2373 56.7085 29.722 58.1458C28.028 59.1725 26.0517 59.9424 23.793 60.4557C21.5343 60.969 19.25 61.2258 16.94 61.2258C14.5787 61.2258 11.6527 60.4557 8.162 58.9157C5.64667 57.6837 3.64467 56.2207 2.156 54.5267C0.71867 52.8327 0 50.9848 0 48.9827C0 47.5967 0.308 46.5958 0.924 45.9798C1.54 45.3125 2.541 44.9788 3.927 44.9788C4.64567 44.9788 5.39 45.2868 6.16 45.9028C6.93 46.4675 7.392 47.0321 7.546 47.5968C8.2647 49.7015 9.5223 51.3185 11.319 52.4478C13.1157 53.5258 15.3487 54.0648 18.018 54.0648C21.098 54.0648 23.6647 53.5001 25.718 52.3708C27.8227 51.2415 28.875 49.7271 28.875 47.8278C28.875 45.9798 27.7457 44.337 25.487 42.8997C23.2283 41.4624 20.9183 40.4615 18.557 39.8968C15.169 38.9728 12.166 37.8691 9.548 36.5858C6.8273 35.2511 4.79967 33.6084 3.465 31.6577C2.13033 29.707 1.463 27.6537 1.463 25.4977C1.463 23.4957 2.156 21.4681 3.542 19.4148C4.928 17.3101 6.57067 15.7957 8.47 14.8717C9.4967 14.3584 11.242 13.8195 13.706 13.2548C16.2213 12.6388 18.0437 12.3307 19.173 12.3307C20.6617 12.3307 22.3043 12.5105 24.101 12.8698C25.8977 13.2291 27.3607 13.7424 28.49 14.4097C30.7487 15.6931 32.417 16.8481 33.495 17.8748C34.573 18.9015 35.112 20.1848 35.112 21.7248C35.112 22.6488 34.7527 23.4701 34.034 24.1888C33.3667 24.9075 32.186 25.2668 30.492 25.2668C30.0813 25.2668 29.6707 25.087 29.26 24.7277C28.8493 24.3684 28.336 23.8295 27.72 23.1108C26.8987 22.0328 26.103 21.3141 25.333 20.9548C24.563 20.6981 23.4337 20.4157 21.945 20.1077C20.5077 19.7997 19.2243 19.6458 18.095 19.6458C16.863 19.6458 15.5797 19.9025 14.245 20.4158C12.9103 20.9291 11.781 21.6735 10.857 22.6488C9.9843 23.5728 9.548 24.6508 9.548 25.8828C9.548 26.9095 10.01 27.8078 10.934 28.5778C11.9093 29.2965 13.0643 29.8868 14.399 30.3488C15.939 30.9648 17.6073 31.5038 19.404 31.9658C21.7653 32.6845 23.6903 33.3518 25.179 33.9678C26.719 34.5325 28.2077 35.251 29.645 36.1237C32.1603 37.6124 33.9827 39.1525 35.112 40.7438C36.2413 42.2838 36.806 44.4397 36.806 47.2118Z" fill="black"/>
<path d="M100.586 29.0397C97.0479 17.9937 93.6315 13.9174 83.7893 12.1833C88.5999 11.651 93.0198 11.1877 96.4985 15.7646C99.9769 20.3414 100.217 23.7503 100.586 29.0397Z" fill="black"/>
<path d="M105.189 27.5764C99.7379 11.4913 94.5265 8.60196 84.0713 6.74526C84.0713 6.74526 93.8973 3.25386 100.53 11.9092C107.162 20.5646 105.189 27.5764 105.189 27.5764Z" fill="black"/>
<path d="M110.779 26.869C106.222 10.6381 100.566 4.72517 84.3955 0.424664C84.3955 0.424664 98.127 -2.57005 105.211 7.34577C112.295 17.2616 110.779 26.869 110.779 26.869Z" fill="black"/>
<path d="M68.7981 59.8954C81.8165 59.8954 92.3699 49.342 92.3699 36.3236C92.3699 23.3053 81.8165 12.7518 68.7981 12.7518C55.7798 12.7518 45.2263 23.3053 45.2263 36.3236C45.2263 49.342 55.7798 59.8954 68.7981 59.8954Z" fill="white" stroke="black" stroke-width="2"/>
<path d="M60.6302 51.5934C59.2655 53.6294 58.9589 57.1957 59.6274 58.0482C60.2959 58.9008 56.7306 57.1957 56.7306 55.3689V47.0871C54.2982 43.9208 55.7279 39.4144 54.3909 39.1708C53.0539 38.9272 49.023 34.8646 48.263 33.5684C47.1827 31.2007 47.0396 30.2965 47.4033 27.9071C46.5608 27.7178 52.746 16.6306 54.3909 17.6814C56.0358 18.7322 56.0621 17.4921 56.0621 17.4921C59.2823 19.1481 59.4553 20.1051 56.0621 21.8766C55.5367 22.3869 57.2877 24.556 57.2877 24.3124C57.2877 24.0688 59.6535 21.2432 61.2987 22.4855C62.8248 24.6882 62.8699 25.5828 60.1845 26.0175L58.179 28.6968C56.5352 30.3413 55.5311 31.2132 55.0594 33.5684C54.4496 32.1997 54.0145 31.8627 53.0539 32.107C52.004 32.1972 51.5267 32.399 51.2712 33.5684C50.8235 35.3301 51.7716 35.5118 53.8338 36.4914C53.936 38.0495 55.2926 38.3124 58.179 38.5618C60.4873 40.9208 63.9727 40.8758 64.6412 43.3116C65.3097 45.7474 63.1571 48.8657 60.6302 51.5934Z" fill="black"/>
<path d="M66.5351 21.5111C66.389 22.5245 65.978 23.0944 65.3095 23.5816C64.641 24.0687 64.0839 20.2932 64.641 19.5625C65.1981 18.8317 64.1953 17.8574 62.7469 16.5177C61.2985 15.178 66.5351 14.9345 66.5351 14.9345L69.7661 14.6909C70.3714 15.2582 71.9945 15.4216 72.4401 15.787C72.8858 16.1524 70.8803 16.3959 70.7689 16.8831C70.6575 17.3703 70.7781 18.7642 70.1004 19.8061L66.5351 21.5111Z" fill="black"/>
<path d="M81.1309 22.8509C81.3537 22.8509 84.9267 19.7434 86.3989 20.2091C87.8712 20.6748 92.375 29.2257 92.0748 37.2137C92.0748 37.2137 91.6514 40.552 91.047 39.9015C90.4426 39.251 88.3928 34.3851 87.9273 35.2735C87.7394 35.6322 87.2217 36.2072 87.036 36.4914C86.1818 37.1815 83.9163 38.1965 83.9163 38.5618C83.9163 38.9272 85.2533 39.1708 85.2533 39.5362C85.2533 39.9015 82.4679 43.677 82.3565 44.1642C82.2451 44.6513 83.025 47.0871 82.9136 47.5743C82.8022 48.0615 81.2356 48.8373 81.1309 50.3755C81.1309 50.3755 78.2341 54.2728 77.1199 53.0549C76.0058 51.837 75.7829 47.8179 75.6715 47.5743C75.5601 47.3307 76.0176 42.047 75.3373 41.2412C74.6569 40.4355 71.9948 40.5105 71.4377 40.8758C70.8806 41.2412 68.58 36.3777 69.7664 35.2735C70.9528 34.1693 72.2176 31.8634 72.4404 31.498C72.6633 31.1326 71.6605 30.6455 71.7719 30.5237C71.8833 30.4019 71.8833 29.4276 71.7719 29.184C71.6605 28.9404 73.1089 27.4789 73.1089 27.4789C73.1089 27.4789 76.34 25.4085 76.5628 25.0431C76.7857 24.6778 75.1144 23.8252 75.003 23.2163C74.8916 22.6073 77.9954 20.3998 79.1254 20.4151C81.8279 20.9879 80.9081 22.8509 81.1309 22.8509Z" fill="black"/>
</g>
<defs>
<clipPath id="clip0_112_24">
<rect width="111" height="62" fill="white"/>
</clipPath>
</defs>
</svg>
